<?xml version="1.0" encoding="UTF-8"?>
<svg width="800" height="800" version="1.1" viewBox="0 0 800 800" xmlns="http://www.w3.org/2000/svg">
 <g fill="none" stroke="#fff" stroke-linecap="round" stroke-linejoin="round" stroke-width="32">
  <path d="m200 300c0-110.46 89.543-200 200-200s200 89.543 200 200v200c0 110.46-89.543 200-200 200s-200-89.543-200-200z"/>
  <path d="m200 400h400"/>
  <path d="m300 200v400"/>
  <path d="m500 200v400"/>
  <circle cx="400" cy="400" r="40"/>
  <path d="m250 150c-27.614 0-50-22.386-50-50s22.386-50 50-50 50 22.386 50 50-22.386 50-50 50z"/>
  <path d="m550 150c-27.614 0-50-22.386-50-50s22.386-50 50-50 50 22.386 50 50-22.386 50-50 50z"/>
 </g>
</svg>